<svg xmlns="http://www.w3.org/2000/svg" xmlns:xlink="http://www.w3.org/1999/xlink" id="Layer_1" x="0" y="0" enable-background="new 0 0 51 79" version="1.1" viewBox="0 0 51 79" xml:space="preserve"><style type="text/css">.st0{fill:#fff}</style><g id="XMLID_2_"><g id="XMLID_3_"><g id="INTERIOR_DETAIL_2_"><g id="XMLID_43_"><g id="XMLID_46_"><path id="XMLID_47_" d="M16,21.9C16.1,21.9,16.1,21.9,16,21.9c0.1,0,0.1-0.1,0.1-0.2c0,0,0,0,0-0.1 c-5.3-3-6.4-5.8-6.6-6.5c-0.1,0.1-0.2,0.2-0.3,0.3c0,0-0.1,0-0.1,0c0.3,1,1.7,3.7,6.7,6.5C15.8,22,15.9,21.9,16,21.9z" class="st0"/></g><g id="XMLID_44_"><path id="XMLID_45_" d="M10.6,32.2c-3.2-0.1-5.6-1.4-6.2-1.7c0,0.2-0.1,0.3-0.2,0.4c0.7,0.4,3.1,1.7,6.4,1.8 C10.5,32.5,10.6,32.3,10.6,32.2z" class="st0"/></g></g><g id="XMLID_41_"><path id="XMLID_42_" d="M9.2,15.5c-0.6-0.9-1.6-1.7-2.6-2L6.7,13c1.1,0.4,2.2,1.2,2.9,2.2L9.2,15.5L9.2,15.5z" class="st0"/></g><g id="XMLID_39_"><path id="XMLID_40_" d="M4.4,30.5c-0.8-0.4-1.7-0.6-2.6-0.5l0-0.5c1,0,2,0.2,2.8,0.6L4.4,30.5L4.4,30.5z" class="st0"/></g><g id="XMLID_26_"><g id="XMLID_37_"><path id="XMLID_38_" d="M41.8,15.5c-0.1-0.1-0.2-0.2-0.3-0.3c-0.2,0.6-1.4,3.6-6.7,6.6c0.1,0.1,0.3,0.2,0.4,0.3 C40.2,19.3,41.5,16.6,41.8,15.5C41.8,15.5,41.8,15.5,41.8,15.5z" class="st0"/></g><g id="XMLID_35_"><path id="XMLID_36_" d="M40.9,59.3c-0.2,0-3.4-0.6-5.2-2.5c-0.1,0.1-0.2,0.3-0.3,0.4c1.8,1.9,4.9,2.5,5.3,2.6l0,0 C40.7,59.6,40.7,59.4,40.9,59.3z" class="st0"/></g><g id="XMLID_33_"><path id="XMLID_34_" d="M28.2,65.9C28.1,65.9,28.1,66,28.2,65.9C28.1,66,28.1,66,28,66.1c0,0,0,0,0,0 c0,0,0,0,0,0.1c0,0.1-0.1,0.1-0.1,0.1c0,0-0.1,0-0.1,0.1c0.8,2.5,3.2,4.3,3.6,4.6l0,0c0-0.2,0.1-0.3,0.3-0.4 C31.6,70.5,28.8,68.5,28.2,65.9z" class="st0"/></g><g id="XMLID_31_"><path id="XMLID_32_" d="M15.4,56.9c-1.7,1.9-5,2.4-5.1,2.4c0.1,0.1,0.2,0.3,0.1,0.5l0,0c0.5-0.1,3.5-0.6,5.3-2.5 C15.5,57.1,15.4,57,15.4,56.9z" class="st0"/></g><g id="XMLID_29_"><path id="XMLID_30_" d="M23.1,66.4c-0.1-0.1-0.2-0.2-0.2-0.3c-0.7,2.5-3.4,4.3-3.5,4.4c0.2,0.1,0.3,0.2,0.3,0.4 l0,0c0.4-0.3,2.8-2,3.6-4.5C23.2,66.4,23.1,66.4,23.1,66.4z" class="st0"/></g><g id="XMLID_27_"><path id="XMLID_28_" d="M40.4,32.6c3.3-0.1,5.7-1.4,6.3-1.8c-0.1-0.1-0.2-0.3-0.2-0.4c-0.6,0.4-2.9,1.6-6.1,1.7 V32.6z" class="st0"/></g></g><g id="XMLID_24_"><path id="XMLID_25_" d="M41.8,15.5l-0.4-0.3c0.6-1,1.6-1.7,2.7-2.2l0.2,0.5C43.3,13.9,42.4,14.6,41.8,15.5 L41.8,15.5z" class="st0"/></g><g id="XMLID_22_"><path id="XMLID_23_" d="M46.6,30.5l-0.2-0.4c0.9-0.5,2-0.7,3-0.6l0,0.5C48.4,29.9,47.4,30.1,46.6,30.5L46.6,30.5z" class="st0"/></g><g id="XMLID_20_"><path id="XMLID_21_" d="M43.7,60.7C43,60,42,59.6,41,59.5l0.1-0.5c1.1,0.2,2.1,0.6,3,1.4L43.7,60.7L43.7,60.7z" class="st0"/></g><g id="XMLID_18_"><path id="XMLID_19_" d="M33.5,73.2c-0.3-1-1-1.9-1.9-2.5l0.3-0.4c0.9,0.7,1.7,1.7,2,2.8L33.5,73.2L33.5,73.2z" class="st0"/></g><g id="XMLID_16_"><path id="XMLID_17_" d="M7.6,60.5l-0.3-0.4C8,59.5,9,59.1,10,59l0.1,0.5C9.1,59.6,8.3,60,7.6,60.5L7.6,60.5z" class="st0"/></g><g id="XMLID_14_"><path id="XMLID_15_" d="M17.5,73.2L17,73.1c0.4-1.1,1.1-2.1,2-2.8l0.3,0.4C18.5,71.3,17.8,72.2,17.5,73.2L17.5,73.2 z" class="st0"/></g><ellipse id="XMLID_13_" cx="25.5" cy="71.2" class="st0" rx="0" ry="0"/></g><path id="OUTLINES_2_" d="M49.7,28.6c-0.4-4.1-1.3-7.7-2.6-10.7c0-0.1-0.2-0.4-0.2-0.5c-1-2.4-2.3-4.4-3.8-6 c-2.7-2.9-6-4.6-9.7-4.6c-0.1,0-0.1,0-0.1,0c-0.6-1.3-2.2-2.2-3.6-2.4c0,0-0.8-3.5-4.3-3.5c-3.5,0-4.3,3.5-4.3,3.5 c-1.4,0.2-3,1.1-3.6,2.4c0,0,0.1,0-0.1,0c-3.7,0.1-7,1.7-9.7,4.6c-1.5,1.6-2.8,3.6-3.8,6c0,0.1-0.2,0.4-0.2,0.5 c-1.3,3-2.2,6.6-2.6,10.7c-2,19.9,6.9,44.5,23.1,48.2c0.2,0.4,0.8,1.1,1.1,1.1c0.3,0,0.9-0.8,1.1-1.1 C42.8,73.1,51.7,48.6,49.7,28.6z M27.9,4.6c-1,0.3-1.8,1-2.3,1.9c0,0,0,0.1-0.1,0.1c0,0-0.1-0.1-0.1-0.1c-0.5-0.9-1.3-1.6-2.3-1.9 l-0.5-0.1c-0.2,0-0.4-0.1-0.6-0.1c0,0,0.6-2.8,3.5-2.8c2.8,0,3.5,2.7,3.5,2.8c-0.2,0-0.4,0-0.6,0.1L27.9,4.6z M21.8,4.9 c1.6,0,3,1,3.5,2.6c0.1,0.4,0.3,0.4,0.5,0c0.5-1.5,1.9-2.6,3.5-2.6c1.4,0,2.6,0.8,3.3,2C32,7,31.5,7.2,31,7.4 c-0.9-0.8-1.9-0.8-2.5-0.6c-1.3,0.4-2.4,1.7-3,2.9c0,0,0,0,0,0c0,0,0,0,0,0c-0.6-1.1-1.6-2.5-3-2.9C21.9,6.6,21,6.6,20,7.4 C19.5,7.2,19,7,18.5,7C19.1,5.7,20.4,4.9,21.8,4.9z M33.4,19.3c1,0,1.7-1.5,1.7-3.5s-0.7-3.5-1.7-3.5c-0.6,0-1.6,0.5-1.7,2.2 c-0.1,1.3,0.5,2.9,1.3,3c0.4,0.1,0.8-0.7,0.9-1.4c0.1-0.6,0.1-1.6-0.5-1.8c-0.2,0-0.4,0.1-0.4,0.2c0,0.2,0.4,0.4,0.3,1.2 c0,1.1-1.1,0.6-1-1.2c0.1-1.6,0.9-1.5,1-1.5c0.4,0,1.1,0.9,1.1,2.7c0,1.5-0.7,3.2-2.2,2.3c-1.2-0.9-1.7-2.9-1.3-4.4 c0.2-0.7,0.8-2.7,2.8-2.7c6.4,0,12,7.6,12.5,20c0.6,16.7-6.2,36.8-18.4,41.2c0,0,0-0.1,0-0.1c-0.2-1.2-1.8-1.4-2.3-1.4 c-0.6,0-2.1,0.2-2.3,1.4c0,0,0,0.1,0,0.1C11,67.8,3.9,47.7,4.8,31c0.7-12.6,6.1-20,12.5-20c2,0,2.6,1.9,2.8,2.7 c0.3,1.6-0.1,3.6-1.3,4.4c-1.4,0.9-2.2-0.8-2.2-2.3c0-1.7,0.7-2.7,1.1-2.7c0,0,0.8-0.1,1,1.5c0.1,1.8-1,2.3-1,1.2 c0-0.7,0.4-1,0.3-1.2c0-0.2-0.2-0.3-0.4-0.2c-0.6,0.1-0.6,1.1-0.5,1.8c0.1,0.7,0.5,1.5,0.9,1.4c0.8-0.1,1.4-1.8,1.3-3 c-0.1-1.8-1.1-2.2-1.7-2.2c-0.9,0-1.7,1.5-1.7,3.5s0.7,3.5,1.7,3.5c0.4,0,7.8,1,7.2-5.4c-0.3-3-2.4-5.4-4.1-6.5 c1.6-1,4.2,0.9,4.6,3c0.1,0.4,0.4,0.4,0.5,0c0.6-2.2,2.9-4,4.6-3c-1.7,1-3.8,3.4-4.1,6.5C25.7,20.3,33,19.3,33.4,19.3z M6.5,58.2 C2.6,49.3,1,38.6,2,28.7c1.3-13,7.3-21.1,15.7-21.1c0.6,0,2.1,0.1,3.4,0.9c1.4,1,2.7,2.7,2.9,5.3c0.3,4-3.7,4.6-4.5,4.6 c-0.1,0-0.2-0.1,0.2-0.5c0.9-1.2,1.2-3,0.9-4.5c-0.4-1.8-1.7-3.3-3.5-3.3C10,10.3,4.8,18.7,4.1,31c-1,17.1,6.5,37.5,19,42 c0,1,0.2,2,0.6,2.7C16.7,73.8,10.6,67.6,6.5,58.2z M25.8,76.8c0,0-0.2,0.2-0.3,0.2c-0.1,0-0.3-0.2-0.3-0.2 c-0.7-0.9-1.7-2.6-1.3-4.6c0.1-0.6,1.1-0.8,1.6-0.8c0.5,0,1.5,0.3,1.6,0.8C27.5,74.3,26.5,75.9,25.8,76.8z M44.5,58.2 c-4.1,9.4-10.2,15.6-17.1,17.5c0.4-0.8,0.6-1.7,0.6-2.7c12.5-4.5,20-24.9,19-42c-0.7-12.3-6-20.7-13.1-20.7 c-1.9,0-3.2,1.4-3.5,3.3c-0.3,1.5,0,3.3,0.9,4.5c0.4,0.5,0.2,0.7,0.1,0.7c-1.2,0-4.8-0.8-4.4-4.7c0.2-2.6,1.5-4.3,2.9-5.3 c1.3-0.8,2.8-0.9,3.4-0.9c8.4,0,14.4,8.1,15.7,21.1C50,38.6,48.4,49.3,44.5,58.2z" class="st0"/><path id="XMLID_5_" d="M25.8,67.4" class="st0"/><g id="XMLID_76_"><path id="XMLID_79_" d="M41.4,35.5c-0.1-2.5-0.9-10.7-6.1-14.1c-1.6-1-3.5-1.4-5.1-1.4c-2.6,0-3.4,0.8-4.6,0.8 c0,0,0,0,0,0c0,0,0,0,0,0c-1.2,0-2-0.8-4.6-0.8c-1.7,0-3.6,0.4-5.1,1.4c-5.3,3.4-6,11.6-6.1,14.1c0,1,0,2.1,0,3.1 c0,0.2,0,0.4,0,0.6l0,0.1c0.1,2,0.4,4.1,0.8,6.1l0,0.2c0.8,3.6,1.9,6.1,2.3,7.1c3.7,8.1,7.7,12.3,10.4,14.1 c1.1,0.8,2.3,1.3,2.4,1.3c0.1,0,1.2-0.5,2.4-1.3c2.7-1.8,6.7-6,10.4-14.1c0.4-0.9,1.5-3.5,2.3-7.1l0-0.2c0.4-2,0.7-4.1,0.8-6.1 l0-0.1c0-0.2,0-0.4,0-0.6C41.5,37.6,41.5,36.6,41.4,35.5z M37.7,31.4l-0.3,0c0,0,0,0-0.1,0c-0.2,0-0.7,0.1-0.9,0.7L30.1,61h-0.9 l0-0.1c0-0.2-3.4-17.4-4-20.6c-0.5,3.2-3.1,20.4-3.1,20.6l0,0.1h-1l0-0.1c-0.3-1.2-6.7-28.8-6.7-28.8c-0.1-0.6-0.7-0.7-0.8-0.7 l-0.2,0v-1.5h5.5l0,1.6l-0.3,0c0,0-0.4,0-0.6,0.2c-0.2,0.2-0.3,0.5-0.3,0.8c0,0.1,0,0.2,0,0.2c0,0,3.2,13.5,3.9,16.7 c0.6-3.7,3.4-21.9,3.4-21.9l0-0.1h0.8l0,0.1c0,0,3.9,18.8,4.6,22.2c0.6-2.7,3.9-17,3.9-17c0.1-0.4,0-0.8-0.2-1 c-0.2-0.2-0.5-0.2-0.7-0.2c-0.1,0-0.2,0-0.2,0l-0.3,0.1v-1.6h4.9V31.4z" class="st0"/></g></g></g></svg>